<?xml version="1.0" encoding="UTF-8" standalone="no"?>
<!-- Created with Inkscape (http://www.inkscape.org/) -->

<svg
   width="130.64961mm"
   height="130.64961mm"
   viewBox="0 0 130.64961 130.64961"
   version="1.1"
   id="svg1"
   xml:space="preserve"
   inkscape:version="1.3 (0e150ed6c4, 2023-07-21)"
   sodipodi:docname="logo.svg"
   inkscape:export-filename="..\src\assets\images\heimdall\logo_white.png"
   inkscape:export-xdpi="93.200638"
   inkscape:export-ydpi="93.200638"
   xmlns:inkscape="http://www.inkscape.org/namespaces/inkscape"
   xmlns:sodipodi="http://sodipodi.sourceforge.net/DTD/sodipodi-0.dtd"
   xmlns="http://www.w3.org/2000/svg"
   xmlns:svg="http://www.w3.org/2000/svg"><sodipodi:namedview
     id="namedview1"
     pagecolor="#ffffff"
     bordercolor="#000000"
     borderopacity="0.25"
     inkscape:showpageshadow="2"
     inkscape:pageopacity="0.0"
     inkscape:pagecheckerboard="0"
     inkscape:deskcolor="#d1d1d1"
     inkscape:document-units="mm"
     inkscape:zoom="1"
     inkscape:cx="166.5"
     inkscape:cy="267.5"
     inkscape:window-width="2560"
     inkscape:window-height="1369"
     inkscape:window-x="2552"
     inkscape:window-y="-8"
     inkscape:window-maximized="1"
     inkscape:current-layer="layer4" /><defs
     id="defs1" /><g
     inkscape:groupmode="layer"
     id="layer4"
     inkscape:label="Backdrop"
     style="display:inline"><rect
       style="fill:#004455;stroke-width:0.869059;stroke-dasharray:none"
       id="rect18"
       width="130.43958"
       height="130.96875"
       x="0.26458398"
       y="-3.8944955e-07" /></g><g
     inkscape:label="Icon"
     inkscape:groupmode="layer"
     id="layer1"
     style="display:inline"
     transform="translate(-34.86468,-81.743463)"><path
       id="circle18"
       style="display:inline;fill:#ffffff;stroke-width:0.0952649"
       d="m 89.314287,114.52452 a 23.520638,23.520638 0 0 1 -23.520635,23.52064 23.520638,23.520638 0 0 1 -23.52064,-23.52064 23.520638,23.520638 0 0 1 23.52064,-23.52064 23.520638,23.520638 0 0 1 23.520635,23.52064 z" /><path
       style="display:inline;fill:#ffffff;stroke-width:0.520214"
       d="m 48.23656,116.98597 2.633203,-3.76995 0.422355,0.42909 c 0.232296,0.236 0.481546,0.42909 0.55389,0.42909 0.07234,0 0.432447,-0.41945 0.800231,-0.93211 2.766421,-3.85615 7.398975,-6.25028 12.101061,-6.25389 l 1.080564,-0.001 0.619071,-0.66936 c 0.736039,-0.79582 1.027004,-1.36015 1.137671,-2.20644 0.19877,-1.52008 -1.27078,-3.08625 -3.565454,-3.79989 -0.397707,-0.12368 -0.806066,-0.29705 -0.907459,-0.385268 -0.268813,-0.233842 -0.22539,-0.888792 0.07801,-1.1766 0.687862,-0.652506 3.632188,-0.279455 5.595718,0.708984 2.049778,1.031864 3.916132,3.463494 4.372331,5.696634 0.101277,0.49572 0.13231,1.46545 0.08613,2.69065 l -0.07222,1.9156 0.422235,0.26144 c 0.730343,0.45222 2.727232,2.57597 3.444037,3.66283 0.844884,1.28108 1.77491,3.23323 2.078816,4.36351 0.125041,0.46503 0.25824,0.95648 0.29601,1.09212 0.03775,0.13563 0.187993,0.2466 0.333841,0.2466 0.145845,0 0.509848,0.13084 0.808896,0.29076 0.885934,0.47375 1.095822,1.1568 1.038328,3.37911 -0.0406,1.56963 -0.0837,1.85762 -0.329646,2.20332 -0.476661,0.66997 -0.975257,0.88181 -2.237522,0.95066 l -14.314451,-0.073 -0.131855,-0.11279 z m 31.75836,7.31256 c 0.08867,-0.11199 0.141452,-0.34979 0.117289,-0.52844 l -0.04395,-0.32482 -8.200771,-0.0382 c -4.510428,-0.021 -8.397394,-0.002 -8.637707,0.0416 -0.393932,0.0719 -0.436918,0.12769 -0.436918,0.56662 v 0.48682 h 8.520407 c 7.265438,0 8.544154,-0.03 8.681631,-0.20362 z m 0.09525,-2.55327 c 0.04436,-0.1212 0.01354,-0.37485 -0.06855,-0.56367 l -0.149237,-0.34331 h -8.539747 -8.53975 v 0.46973 c 0,0.25834 0.04035,0.512 0.08963,0.56367 0.04929,0.0517 3.923028,0.0939 8.608306,0.0939 7.602537,0 8.527357,-0.0237 8.599354,-0.22037 z m -2.240136,-2.72688 c 0,-0.45777 -0.789568,-2.46577 -1.369843,-3.48374 -0.30324,-0.53197 -0.879143,-1.37941 -1.279789,-1.8832 -0.725702,-0.91252 -2.244069,-2.3956 -2.452595,-2.3956 -0.06032,0 -0.245203,0.35005 -0.410868,0.7779 -0.633473,1.63599 -2.480352,3.86902 -3.943162,4.76759 -1.32103,0.8115 -2.340833,1.12238 -3.725588,1.13573 -1.211155,0.0117 -1.336322,-0.0154 -2.205961,-0.47802 -3.090712,-1.64404 -3.160638,-6.06067 -0.132004,-8.3374 0.747284,-0.56176 0.586217,-0.6448 -0.662066,-0.34136 -2.273243,0.55261 -4.54771,1.83433 -6.241111,3.51703 -0.950461,0.94445 -2.313765,2.66608 -2.313765,2.9219 0,0.18418 1.843671,1.57717 3.024872,2.28545 1.229701,0.73735 3.092935,1.4274 4.369266,1.61814 0.480621,0.0718 4.579324,0.13842 9.108235,0.14799 8.028045,0.017 8.234379,0.0106 8.234379,-0.25241 z m -11.509319,-2.99386 c 2.400581,-0.83548 4.45585,-3.43686 5.208005,-6.59184 0.230281,-0.96593 0.27262,-1.48621 0.22564,-2.77277 -0.0539,-1.47598 -0.09099,-1.65405 -0.545198,-2.61736 -0.537547,-1.14007 -1.665262,-2.4438 -2.622491,-3.03182 -0.320552,-0.1969 -0.608323,-0.33128 -0.63949,-0.29861 -0.03114,0.0327 0.145006,0.35673 0.391497,0.72014 0.84213,1.24155 0.94135,2.42599 0.343523,4.10082 -0.43111,1.20778 -1.655671,2.43356 -3.664605,3.66826 -1.935253,1.18941 -2.653603,1.83402 -3.107289,2.78833 -0.457039,0.96136 -0.456952,1.7987 2.91e-4,2.76049 0.759313,1.59718 2.247223,2.02713 4.410117,1.27436 z"
       id="path1-6"
       sodipodi:nodetypes="ccsscccssscsssscsssssssscccccccccscsccsscccsssssssssscssssssscsssssssssssss" /><g
       inkscape:groupmode="layer"
       id="layer3"
       inkscape:label="Icon 1"
       transform="matrix(0.36005676,0,0,0.36005676,29.719749,61.571594)" /><path
       style="display:inline;fill:#004455;stroke-width:0.681562;stroke-dasharray:none"
       d="m 50.831561,124.18326 c -0.02118,-0.0879 -1.141299,-1.13183 -2.489154,-2.31978 -1.347854,-1.18796 -2.482723,-2.21182 -2.521929,-2.27525 -0.03922,-0.0634 1.151358,-1.78528 2.645679,-3.82634 l 2.716959,-3.71101 0.435789,0.42239 c 0.239684,0.23231 0.496863,0.42238 0.571505,0.42238 0.07464,0 0.446202,-0.41289 0.825684,-0.91754 2.854413,-3.79586 7.634319,-6.15255 12.48597,-6.15611 l 1.11493,-0.001 0.638762,-0.6589 c 0.759446,-0.78338 1.059668,-1.33888 1.17386,-2.17194 0.205092,-1.49632 -1.311204,-3.038002 -3.678864,-3.740476 -0.41036,-0.121754 -0.831706,-0.292413 -0.936324,-0.379245 -0.277363,-0.230191 -0.232561,-0.874902 0.08049,-1.158212 0.70974,-0.642298 3.747721,-0.27508 5.773707,0.697901 2.114973,1.015728 4.040697,3.409342 4.511407,5.607582 0.104495,0.48796 0.136515,1.44253 0.08886,2.64858 l -0.07451,1.88564 0.435665,0.25735 c 0.753573,0.44516 2.81398,2.5357 3.553584,3.60557 0.871758,1.26104 1.831364,3.18267 2.144937,4.29528 0.129019,0.45777 0.266456,0.94154 0.305425,1.07505 0.03896,0.13351 0.193974,0.24275 0.344459,0.24275 0.150486,0 0.526069,0.12879 0.834626,0.28621 0.914116,0.46634 1.130679,1.13871 1.071356,3.32628 -0.04189,1.54509 -0.08636,1.82857 -0.340127,2.16886 -0.491827,0.65951 -1.00628,0.86804 -2.308695,0.93581 z m 11.128052,-2.80689 v -1.7842 l -0.79761,-0.0924 c -2.689884,-0.31156 -5.964977,-1.90028 -8.753614,-4.24632 -0.561135,-0.47207 -1.067539,-0.80556 -1.125346,-0.7411 -0.0578,0.0645 -0.871307,1.16759 -1.807783,2.45137 -1.434548,1.96656 -1.672382,2.36276 -1.510239,2.51585 0.105847,0.0999 1.089611,0.96903 2.186143,1.93133 l 1.993696,1.74965 h 4.907374 4.907379 z m 19.275062,1.58376 c 0.09149,-0.11024 0.145949,-0.34432 0.121015,-0.52018 l -0.04534,-0.31974 -8.461622,-0.0376 c -4.653892,-0.0207 -8.664492,-0.002 -8.912448,0.0409 -0.406461,0.0708 -0.450816,0.12569 -0.450816,0.55775 v 0.47922 h 8.791422 c 7.496532,0 8.815921,-0.0295 8.957772,-0.20043 z m 0.09828,-2.51335 c 0.04577,-0.11931 0.01397,-0.36899 -0.07074,-0.55486 l -0.153978,-0.33794 h -8.811381 -8.81138 v 0.46238 c 0,0.25431 0.04163,0.504 0.09248,0.55486 0.05085,0.0509 4.047815,0.0925 8.882117,0.0925 7.844358,0 8.798595,-0.0233 8.872882,-0.21692 z m -2.311388,-2.68425 c 0,-0.45061 -0.814686,-2.42722 -1.413417,-3.42927 -0.312886,-0.52366 -0.907109,-1.35784 -1.320497,-1.85375 -0.748782,-0.89826 -2.315443,-2.35816 -2.530609,-2.35816 -0.06223,0 -0.252997,0.34459 -0.423934,0.76574 -0.653622,1.61042 -2.559248,3.80853 -4.068584,4.69306 -1.363049,0.7988 -2.415297,1.10482 -3.844091,1.11797 -1.249678,0.0115 -1.378827,-0.0152 -2.276128,-0.47055 -3.189019,-1.61834 -3.26117,-5.96592 -0.136202,-8.20705 0.771054,-0.55298 0.604863,-0.63473 -0.683124,-0.33602 -2.34555,0.54397 -4.692362,1.80565 -6.439627,3.46204 -0.980692,0.92968 -2.38736,2.6244 -2.38736,2.87622 0,0.1813 1.902314,1.55251 3.121086,2.24972 1.268815,0.72582 3.191314,1.40508 4.508241,1.59284 0.495909,0.0707 4.724983,0.13625 9.397944,0.14567 8.283401,0.0167 8.496302,0.0105 8.496302,-0.24846 z m -11.87541,-2.94705 c 2.476939,-0.82242 4.597576,-3.38313 5.37366,-6.48879 0.237609,-0.95083 0.281291,-1.46296 0.232816,-2.72941 -0.05561,-1.4529 -0.09388,-1.62819 -0.562538,-2.57645 -0.554649,-1.12224 -1.71823,-2.40559 -2.705909,-2.9844 -0.330745,-0.193835 -0.627669,-0.326109 -0.659826,-0.293948 -0.03215,0.03212 0.149614,0.351158 0.403948,0.708878 0.86891,1.22215 0.971289,2.38806 0.35445,4.03671 -0.444825,1.1889 -1.708332,2.39551 -3.781168,3.6109 -1.996809,1.17082 -2.738007,1.80536 -3.206124,2.74474 -0.471577,0.94633 -0.471488,1.77058 2.99e-4,2.71733 0.783465,1.57221 2.3187,1.99544 4.550392,1.25444 z"
       id="path1-3"
       sodipodi:nodetypes="cssscsscccssscsssscssssssssccccsssssscccccscccscsccsscccsssssssssssssssssscsssssssssssss" /></g><g
     inkscape:groupmode="layer"
     id="layer2"
     inkscape:label="Logo"
     style="display:inline;fill:#ffffff"
     transform="translate(-34.864679,-81.743463)"><path
       style="fill:#ffffff;stroke-width:0.525076;stroke-dasharray:none"
       d="m 59.854536,192.79319 c -1.157251,-0.20737 -1.333604,-0.55408 -0.720836,-1.41718 0.216509,-0.30496 0.678022,-0.95698 1.025581,-1.44894 0.734036,-1.03899 1.065165,-1.83971 1.065165,-2.57574 0,-0.71531 -0.129338,-1.00315 -0.841442,-1.87264 -0.888638,-1.08504 -1.066776,-1.36502 -1.300221,-2.04353 -0.522627,-1.51905 -0.126143,-3.04566 1.210126,-4.65941 0.395988,-0.47821 0.406603,-0.51427 0.516658,-1.75531 l 0.112363,-1.26706 -1.178702,-1.1221 c -1.100123,-1.04729 -1.23619,-1.22567 -1.203102,-1.57724 0.0069,-0.074 0.783425,-0.96306 1.725471,-1.97568 0.942046,-1.01263 1.699461,-1.89657 1.683147,-1.9643 -0.01632,-0.0677 -0.87926,-0.87197 -1.91765,-1.78717 -1.038389,-0.9152 -1.912693,-1.70398 -1.942897,-1.75285 -0.03021,-0.0489 0.887007,-1.37539 2.038235,-2.94782 l 2.09315,-2.85897 0.335733,0.32541 c 0.184653,0.17897 0.382784,0.3254 0.440291,0.3254 0.0575,0 0.343755,-0.31809 0.636107,-0.70687 2.199045,-2.92434 5.881494,-4.73994 9.619212,-4.74268 l 0.858947,-8.1e-4 0.492105,-0.50762 c 0.58508,-0.60351 0.816371,-1.03147 0.904342,-1.67326 0.158003,-1.15277 -1.010153,-2.34049 -2.834205,-2.88168 -0.31614,-0.0938 -0.640746,-0.22527 -0.721345,-0.29217 -0.213681,-0.17734 -0.179164,-0.67402 0.06201,-0.89228 0.546785,-0.49483 2.887249,-0.21193 4.448073,0.53766 1.629382,0.78252 3.112959,2.62656 3.475596,4.32009 0.0805,0.37593 0.105173,1.11133 0.06846,2.04047 l -0.0574,1.45271 0.335637,0.19826 c 0.580556,0.34294 2.167896,1.9535 2.737687,2.77773 0.671604,0.97151 1.410887,2.45194 1.652466,3.3091 0.09939,0.35266 0.205276,0.72535 0.235298,0.82821 0.03001,0.10286 0.149437,0.18702 0.265374,0.18702 0.115932,0 0.405281,0.0992 0.642995,0.2205 0.704236,0.35927 0.871076,0.87726 0.825375,2.56257 -0.03227,1.19034 -0.06653,1.40873 -0.262037,1.6709 -0.378903,0.50808 -0.775238,0.66873 -1.778621,0.72094 -0.961523,0.05 -1.37006,0.19298 -1.750162,0.61243 -0.357997,0.39506 -0.467536,0.67994 -0.467536,1.21594 0,0.89419 0.4825,1.53778 1.32786,1.77119 0.324497,0.0896 0.364532,0.1439 0.406675,0.55159 0.06913,0.6687 0.03781,0.70341 -0.538017,0.59611 -0.776433,-0.14469 -0.87417,-0.19132 -1.381938,-0.65937 -1.021268,-0.94137 -1.321785,-2.34251 -0.750159,-3.49755 0.293998,-0.59407 0.250073,-0.68118 -0.311071,-0.61692 -0.489391,0.056 -0.730376,0.66744 -0.730376,1.85301 0,0.87303 0.03296,1.03039 0.351243,1.67752 0.556233,1.1309 1.649553,1.94472 2.794852,2.08036 l 0.540792,0.0641 v 0.57288 0.57288 H 83.73107 c -0.530847,0 -1.645106,-0.37157 -2.233163,-0.74469 -1.350179,-0.85668 -2.19692,-2.25116 -2.291963,-3.77461 -0.04963,-0.79542 0.04368,-1.61176 0.243841,-2.13337 0.06294,-0.16401 -8.08e-4,-0.18678 -0.523403,-0.18678 h -0.595081 l -0.122912,0.45418 c -0.201976,0.74633 -0.147098,2.48521 0.103707,3.28615 0.695874,2.22224 2.77998,3.92423 5.171082,4.22298 l 0.610667,0.0763 v 0.59021 0.59021 l -0.713085,-0.0731 c -2.69607,-0.27621 -5.265063,-2.30488 -6.111537,-4.82611 -0.322461,-0.96046 -0.462249,-2.3036 -0.338775,-3.25514 0.05699,-0.4392 0.105104,-0.85865 0.106918,-0.93213 0.0024,-0.0924 -0.194953,-0.13358 -0.640544,-0.13358 -0.603062,0 -0.651175,0.0186 -0.759619,0.29389 -0.209101,0.53078 -0.145551,2.75697 0.106009,3.7136 0.670049,2.54804 2.456085,4.66222 4.887678,5.78568 0.813811,0.37601 2.426411,0.78241 3.115641,0.78519 l 0.347314,0.001 v 0.58776 c 0,0.57586 -0.0062,0.58777 -0.3066,0.58777 -0.562792,0 -2.156692,-0.32107 -2.922991,-0.58881 -3.16869,-1.10707 -5.645282,-3.90826 -6.338951,-7.16977 -0.159655,-0.75068 -0.240877,-3.00571 -0.134323,-3.72956 0.02783,-0.18906 -0.03776,-0.21738 -0.568245,-0.24534 L 73.22303,169.49135 73.156,169.897 c -0.22422,1.35681 4.03e-4,3.6389 0.504258,5.11952 1.348022,3.96249 5.221998,7.05205 9.254862,7.3809 1.218373,0.0993 1.271854,0.13256 1.205638,0.74857 -0.03045,0.28321 -0.06097,0.52195 -0.06785,0.53051 -0.0069,0.009 -0.492436,-0.029 -1.079034,-0.0836 -1.295621,-0.12048 -2.045845,-0.30157 -3.343541,-0.80709 -0.544693,-0.21219 -1.007014,-0.36659 -1.027379,-0.34311 -0.02036,0.0235 -0.190905,0.50884 -0.378987,1.07858 -0.402236,1.21848 -0.933742,2.08739 -1.695175,2.7713 -0.959555,0.86187 -2.166219,1.26277 -3.816213,1.26791 -2.334793,0.007 -2.691,0.19137 -6.154783,3.18094 -0.987522,0.85233 -2.405036,1.63011 -3.463187,1.90024 -0.806902,0.20599 -2.494189,0.28459 -3.240071,0.15094 z m 3.293503,-1.37348 c 1.040206,-0.32718 1.896366,-0.88837 3.399003,-2.22795 2.582439,-2.3022 3.347567,-2.66589 5.898365,-2.80369 2.160391,-0.11672 3.071942,-0.48751 3.845088,-1.5641 0.510967,-0.7115 1.177636,-2.41598 1.177636,-3.01086 0,-0.17468 -1.302459,-1.09084 -1.431502,-1.00692 -0.06494,0.0422 -0.382558,0.24912 -0.705827,0.45978 -1.363128,0.88824 -3.928224,1.73705 -5.210123,1.72406 -1.459815,-0.0148 -2.30072,-0.59961 -3.683515,-2.56174 -1.106734,-1.57041 -1.381163,-1.7812 -2.312829,-1.77654 -0.390022,0.002 -1.108776,0.0916 -1.597232,0.19916 -0.838914,0.18477 -0.913875,0.22506 -1.353436,0.72754 -0.255934,0.29258 -0.60168,0.77791 -0.768327,1.07853 -0.266436,0.48064 -0.30288,0.65617 -0.302068,1.45495 0.0012,1.06162 0.05235,1.17958 1.068985,2.45949 0.970212,1.22147 1.146633,1.5973 1.203204,2.56323 0.03663,0.62577 -0.0024,0.94792 -0.17912,1.46935 -0.231174,0.68296 -0.864966,1.80421 -1.413177,2.50008 -0.168731,0.21418 -0.306781,0.44967 -0.306781,0.52332 0,0.20174 1.819707,0.0603 2.671656,-0.20769 z m 7.587511,-9.71378 c 0,-0.047 -0.165407,-0.14521 -0.367569,-0.21831 -0.558296,-0.20188 -1.389463,-1.00789 -1.639645,-1.59003 -0.120731,-0.28091 -0.394235,-1.10663 -0.607787,-1.83492 -0.213549,-0.72829 -0.480885,-1.5057 -0.594079,-1.72758 -0.593731,-1.16381 -2.409936,-1.50839 -4.426273,-0.83978 l -0.994262,0.32969 -0.06671,0.48672 c -0.03668,0.2677 -0.06671,0.70256 -0.06671,0.96637 v 0.47964 l 0.454182,-0.0758 c 1.368332,-0.22841 1.73805,-0.25175 2.331612,-0.1472 0.970436,0.17094 1.480446,0.57638 2.449251,1.94705 0.879962,1.24498 1.442496,1.85138 1.978433,2.13272 0.330078,0.17327 1.549562,0.24524 1.549562,0.0914 z m 3.273766,-1.09029 c 1.344973,-0.68421 1.313477,-0.62955 0.756751,-1.31306 -1.433598,-1.76007 -2.369379,-3.7842 -2.752462,-5.95369 -0.136476,-0.77291 -0.170266,-2.97489 -0.05379,-3.50522 l 0.07511,-0.34197 -4.309857,0.002 c -2.370426,8.1e-4 -4.364048,0.037 -4.430276,0.0802 -0.06623,0.0432 -0.852334,0.87199 -1.746906,1.8418 l -1.626494,1.7633 0.838546,0.77672 c 0.489758,0.45366 0.905218,0.75698 0.998844,0.72925 0.08816,-0.0261 0.520972,-0.17714 0.961797,-0.33562 1.57375,-0.56579 3.66141,-0.46716 4.721279,0.22305 0.909758,0.59246 1.272553,1.22943 1.81641,3.18912 0.454902,1.63917 0.716131,2.12397 1.343014,2.49247 0.424427,0.24948 2.020903,0.75471 2.446239,0.77415 0.06666,0.003 0.499472,-0.18689 0.961797,-0.42209 z m -3.4875,-13.66402 v -1.37455 l -0.614479,-0.0712 c -2.072292,-0.24003 -4.59543,-1.46398 -6.7438,-3.27137 -0.432301,-0.36369 -0.822436,-0.62061 -0.866971,-0.57095 -0.04453,0.0497 -0.671257,0.89952 -1.392719,1.88854 -1.105179,1.51505 -1.288407,1.82028 -1.163491,1.93822 0.08154,0.077 0.839438,0.74654 1.684208,1.4879 l 1.535948,1.34793 h 3.780651 3.780653 z m 14.849543,1.22013 c 0.07048,-0.0849 0.112439,-0.26526 0.09323,-0.40074 l -0.03494,-0.24634 -6.518846,-0.029 c -3.585366,-0.0159 -6.675141,-0.002 -6.866167,0.0316 -0.313139,0.0546 -0.34731,0.0968 -0.34731,0.42969 v 0.36919 h 6.772927 c 5.775343,0 6.791804,-0.0227 6.901085,-0.15442 z m 0.07572,-1.93629 c 0.03526,-0.0919 0.01074,-0.28427 -0.0545,-0.42747 l -0.118627,-0.26034 h -6.788303 -6.788302 v 0.35622 c 0,0.19592 0.03207,0.38828 0.07124,0.42746 0.03918,0.0392 3.118445,0.0712 6.842798,0.0712 6.043309,0 6.778455,-0.018 6.835685,-0.16712 z m -1.780697,-2.06795 c 0,-0.34715 -0.627635,-1.86993 -1.088898,-2.64192 -0.24105,-0.40342 -0.698839,-1.04608 -1.017314,-1.42813 -0.576864,-0.69202 -1.783823,-1.81673 -1.949586,-1.81673 -0.04794,0 -0.194912,0.26547 -0.326601,0.58993 -0.503551,1.24067 -1.971646,2.9341 -3.134443,3.61554 -1.050094,0.6154 -1.860746,0.85116 -2.961495,0.86129 -0.962754,0.009 -1.062252,-0.0117 -1.753534,-0.36252 -2.456825,-1.24676 -2.51241,-4.59614 -0.10493,-6.32272 0.594022,-0.42601 0.465988,-0.48899 -0.52628,-0.25887 -1.807015,0.41908 -3.615004,1.39108 -4.9611,2.66716 -0.755527,0.71623 -1.839227,2.02184 -1.839227,2.21585 0,0.13967 1.465547,1.19605 2.404491,1.73318 0.977497,0.55918 2.458594,1.08248 3.473157,1.22713 0.382049,0.0545 3.640135,0.10497 7.240195,0.11223 6.381547,0.0128 6.545565,0.008 6.545565,-0.19142 z m -9.148837,-2.27041 c 1.908238,-0.63359 3.541982,-2.60637 4.139878,-4.99897 0.183053,-0.73252 0.216707,-1.12707 0.179362,-2.10275 -0.04285,-1.11932 -0.07233,-1.25436 -0.433382,-1.98489 -0.427298,-0.86458 -1.323727,-1.85328 -2.084635,-2.2992 -0.254807,-0.14933 -0.483558,-0.25123 -0.508334,-0.22645 -0.02476,0.0247 0.115267,0.27053 0.311205,0.54612 0.669411,0.94154 0.748281,1.83976 0.273067,3.10988 -0.342692,0.91593 -1.316102,1.84551 -2.913018,2.78185 -1.538347,0.902 -2.109366,1.39085 -2.470004,2.11455 -0.363304,0.72906 -0.363236,1.36406 2.3e-4,2.09344 0.603582,1.21123 1.786331,1.53729 3.505631,0.96642 z"
       id="path1" /><text
       xml:space="preserve"
       style="font-size:11.3991px;font-family:'Copperplate Gothic Bold';-inkscape-font-specification:'Copperplate Gothic Bold, ';fill:#ffffff;stroke-width:0.106866"
       x="40.786762"
       y="199.97275"
       id="text1"><tspan
         sodipodi:role="line"
         id="tspan1"
         x="40.786762"
         y="199.97275"
         style="font-style:normal;font-variant:normal;font-weight:300;font-stretch:normal;font-size:11.3991px;font-family:'Nordica Plus';-inkscape-font-specification:'Nordica Plus Light';fill:#ffffff;stroke-width:0.106866">heimdall</tspan></text><text
       xml:space="preserve"
       style="font-style:normal;font-variant:normal;font-weight:300;font-stretch:normal;font-size:2.84977px;font-family:'Nordica Plus';-inkscape-font-specification:'Nordica Plus Light';fill:#ffffff;stroke-width:0.106866"
       x="63.294788"
       y="203.44984"
       id="text2"><tspan
         sodipodi:role="line"
         id="tspan2"
         x="63.294788"
         y="203.44984"
         style="font-size:2.84977px;fill:#ffffff;stroke-width:0.106866">Parks 'n Peaks</tspan></text></g></svg>
