<?xml version="1.0" standalone="no"?>
<!DOCTYPE svg PUBLIC "-//W3C//DTD SVG 20010904//EN"
 "http://www.w3.org/TR/2001/REC-SVG-20010904/DTD/svg10.dtd">
<svg version="1.0" xmlns="http://www.w3.org/2000/svg"
 width="850.000000pt" height="850.000000pt" viewBox="0 0 850.000000 850.000000"
 preserveAspectRatio="xMidYMid meet">

<g transform="translate(0.000000,850.000000) scale(0.100000,-0.100000)"
fill="#000000" stroke="none">
<path d="M0 4250 l0 -4250 4250 0 4250 0 0 4250 0 4250 -4250 0 -4250 0 0
-4250z m2996 3346 c-14 -19 -55 -77 -91 -130 -81 -120 -81 -132 -20 -299 132
-356 124 -700 -22 -941 -71 -116 -174 -220 -309 -314 -18 -12 -18 -13 1 -7 46
15 216 43 295 50 93 8 269 -6 393 -31 227 -45 421 -158 570 -330 97 -113 167
-250 257 -509 23 -66 51 -137 61 -158 13 -24 17 -43 11 -53 -15 -26 -126 -103
-172 -119 -124 -43 -266 -25 -340 41 l-38 35 -134 -45 c-73 -24 -175 -53 -226
-63 l-93 -18 6 -35 c24 -129 178 -263 368 -322 93 -28 141 -21 209 28 29 21
56 44 60 50 14 22 65 37 87 24 27 -14 26 -22 -3 -68 -68 -102 -122 -348 -112
-512 7 -137 70 -583 95 -680 51 -195 138 -312 392 -531 185 -158 242 -225 323
-376 38 -70 104 -190 147 -265 70 -123 74 -136 51 -125 -63 27 -389 239 -497
322 -43 33 -102 78 -130 100 -29 22 -76 61 -106 86 -30 26 -115 98 -190 160
-273 228 -305 257 -381 338 -88 93 -156 197 -230 351 -65 134 -90 202 -134
358 l-35 127 -115 108 c-188 179 -263 312 -359 639 -19 65 -35 123 -35 130 0
10 -57 13 -273 13 -285 1 -369 8 -587 52 -156 31 -191 42 -315 103 -172 84
-296 191 -414 356 -144 203 -211 406 -211 645 0 137 21 233 105 484 116 348
142 474 132 649 -12 195 -67 341 -182 481 -67 81 -107 147 -119 199 -7 27 -6
28 21 22 101 -24 169 -61 239 -131 78 -77 122 -157 152 -273 26 -104 23 -493
-7 -712 -30 -231 -38 -463 -17 -559 17 -83 71 -195 122 -258 83 -101 235 -199
384 -247 307 -99 710 -119 1140 -55 132 20 518 101 567 120 42 16 39 10 -17
-31 -187 -135 -469 -217 -837 -241 -315 -22 -641 14 -843 92 -84 32 -246 133
-306 191 l-31 29 4 -53 c8 -89 50 -145 186 -247 126 -95 306 -164 527 -202
289 -50 558 -30 965 70 212 52 658 207 703 243 19 16 15 1 -20 -66 -56 -108
-98 -139 -278 -204 -149 -54 -613 -182 -660 -182 -11 0 -25 10 -31 23 -24 44
-59 51 -59 10 0 -37 45 -92 94 -114 70 -32 147 -25 364 31 163 42 451 142 487
169 5 4 35 22 66 39 l56 32 -4 -24 c-5 -23 4 -29 96 -75 55 -28 113 -51 129
-51 32 0 52 16 52 42 0 42 -133 330 -203 439 -70 110 -230 232 -386 295 -80
32 -274 81 -392 99 -145 22 -470 20 -709 -5 -107 -11 -215 -20 -240 -19 l-45
1 65 14 c127 27 270 85 362 146 153 103 325 282 400 419 75 135 97 249 79 403
-17 149 -41 234 -104 371 -66 143 -81 193 -72 249 22 132 107 209 253 226 37
4 71 8 76 9 4 0 -3 -14 -18 -33z m-72 -1944 c-8 -8 -139 -34 -229 -47 -330
-46 -864 -46 -1040 0 -58 16 -95 29 -95 34 0 4 199 8 443 10 243 1 444 5 446
7 2 2 112 4 245 4 132 0 236 -4 230 -8z m4737 -238 c28 -102 192 -758 274
-1104 41 -173 109 -454 160 -665 35 -143 75 -338 75 -359 -1 -6 -31 48 -68
120 -112 218 -240 351 -419 435 -91 42 -297 112 -394 134 l-64 14 77 -1 c43
-1 78 2 78 6 0 3 -7 23 -16 44 -20 46 -44 121 -44 138 0 7 45 -6 123 -38 209
-85 307 -137 365 -194 28 -29 52 -50 52 -47 0 3 -43 177 -95 388 -52 210 -98
406 -103 436 l-8 54 -19 -40 c-28 -60 -188 -215 -267 -259 -109 -60 -462 -198
-473 -184 -13 17 -67 150 -62 154 3 4 39 21 80 38 246 107 491 326 611 546 56
104 98 282 98 423 0 43 2 76 4 74 2 -2 18 -53 35 -113z m-3458 -743 c76 -57
241 -229 266 -278 25 -50 26 -81 5 -126 -27 -56 -65 -72 -164 -69 -131 3 -155
9 -166 40 -10 27 -10 26 -63 -48 -30 -41 -76 -122 -103 -180 -72 -155 -72
-155 -92 -158 -28 -6 -36 15 -36 94 0 79 28 200 63 278 24 51 92 155 111 168
6 4 26 0 45 -9 44 -19 105 -38 149 -46 31 -6 33 -5 26 16 -4 12 -22 39 -40 60
-35 38 -177 248 -171 253 4 4 101 42 110 43 4 1 31 -16 60 -38z m2527 -108
c13 -32 42 -101 66 -153 23 -52 73 -169 109 -260 37 -91 114 -279 170 -419 57
-140 102 -258 99 -262 -16 -27 -53 -388 -74 -731 -25 -412 -33 -523 -61 -838
-16 -184 -41 -434 -55 -555 -14 -121 -27 -245 -30 -275 -3 -30 -7 -70 -10 -87
l-5 -33 -79 0 -78 0 4 38 c38 330 107 1019 118 1192 9 124 18 253 21 288 l6
62 -64 -24 c-102 -38 -200 -50 -360 -43 -78 4 -167 9 -197 13 l-55 5 -34 -88
c-103 -269 -219 -453 -363 -574 l-47 -40 33 68 c112 230 176 393 296 758 51
154 97 286 103 293 14 17 12 18 -138 110 -131 79 -327 201 -443 275 -34 22
-61 43 -60 46 101 197 168 338 168 353 0 16 -5 19 -22 15 -134 -33 -325 -67
-375 -67 -91 0 -200 24 -310 68 -123 49 -188 64 -261 56 -101 -10 -99 -8 -107
-64 -6 -41 -12 -53 -34 -64 -31 -17 -43 -12 -113 46 -39 33 -49 47 -59 93 -9
43 -9 60 1 85 31 75 117 104 165 56 23 -24 26 -24 55 -9 17 8 66 17 108 20 68
5 87 2 162 -25 47 -17 121 -46 165 -66 108 -47 191 -60 314 -46 53 6 128 19
166 29 85 22 84 3 10 251 -30 100 -55 189 -55 198 0 12 28 29 86 54 85 36 85
36 93 15 5 -14 3 -33 -6 -52 -13 -28 -12 -44 17 -180 17 -83 38 -188 46 -235
9 -47 29 -133 45 -192 l30 -106 -45 -90 c-25 -50 -51 -92 -58 -95 -9 -3 -10
-8 -3 -16 21 -22 226 -138 396 -224 215 -109 246 -115 457 -98 81 6 185 20
232 30 46 10 89 17 95 14 8 -2 19 52 34 164 12 92 27 184 33 203 8 29 6 44
-12 85 -12 28 -46 115 -75 195 -78 210 -156 397 -245 586 -26 55 -53 117 -61
137 -14 40 -32 51 -24 15 2 -13 11 -59 19 -104 25 -135 164 -567 207 -642 14
-24 15 -34 6 -37 -62 -22 -102 -34 -104 -32 -47 48 -287 844 -257 854 5 2 54
28 109 57 55 30 103 55 106 55 3 1 16 -25 29 -56z m-3054 14 c27 -13 64 -28
81 -32 49 -10 48 -21 -4 -39 -60 -20 -137 -21 -168 0 -34 22 -77 82 -69 95 11
18 105 4 160 -24z m2729 -153 c9 -49 27 -126 41 -172 14 -45 24 -97 22 -114
l-3 -33 -38 54 c-21 29 -47 70 -59 92 -25 49 -43 62 -24 17 8 -18 38 -107 66
-198 29 -91 70 -203 91 -249 44 -95 43 -91 28 -91 -6 0 -38 -13 -70 -30 -34
-17 -59 -25 -59 -18 0 6 -15 55 -34 107 -19 53 -63 184 -97 291 -34 107 -73
221 -85 253 l-23 57 26 18 c29 19 197 108 200 107 2 -1 10 -42 18 -91z m-4430
29 c-2 -27 -7 -106 -10 -178 -7 -144 -30 -279 -74 -430 -49 -173 -82 -237
-198 -389 l-37 -49 54 5 c84 9 167 45 214 92 45 45 106 153 137 243 31 92 69
300 69 382 l0 76 57 17 c32 9 58 16 58 15 1 -1 -2 -83 -6 -182 -7 -175 -35
-396 -63 -502 l-14 -53 49 0 c122 0 158 68 229 435 17 88 37 212 43 275 l12
114 44 -159 c41 -148 45 -169 44 -275 -1 -197 -45 -359 -139 -517 -35 -59 -61
-110 -58 -114 2 -4 24 -11 49 -14 67 -11 135 16 206 82 93 87 131 170 150 327
7 62 7 56 4 -45 -4 -135 -29 -234 -81 -320 -19 -31 -34 -66 -34 -78 0 -32 68
-30 108 3 50 43 121 197 122 266 1 24 1 24 12 5 8 -12 12 -61 12 -120 0 -87
-3 -107 -27 -159 -15 -32 -27 -62 -27 -67 0 -25 137 -35 191 -14 12 4 21 -13
43 -87 15 -51 36 -108 46 -125 l19 -33 -37 16 c-122 53 -377 128 -552 164
-402 82 -590 101 -1050 109 -206 4 -368 9 -360 13 8 3 27 9 42 12 45 10 179
107 264 191 101 99 143 163 200 300 92 223 129 425 121 657 l-5 147 52 4 c28
2 68 4 88 5 l38 2 -5 -47z m4108 -51 c6 -80 79 -418 97 -452 14 -26 15 -25
-30 -45 -24 -11 -44 -15 -49 -9 -4 5 -20 43 -34 85 -40 115 -98 249 -108 249
-12 0 10 -65 75 -220 31 -74 77 -188 101 -253 25 -65 52 -132 61 -148 8 -17
14 -32 12 -33 -2 -2 -31 -17 -65 -33 l-62 -31 -19 57 c-11 31 -42 119 -69 196
-28 77 -78 231 -113 343 l-63 203 24 24 c22 22 216 144 230 145 3 0 9 -35 12
-78z m-1686 -332 c19 -38 16 -103 -7 -132 -18 -23 -27 -25 -129 -30 -133 -7
-178 -25 -257 -106 -46 -46 -54 -51 -54 -32 0 42 62 153 119 211 56 58 56 58
96 49 72 -17 111 -13 128 14 41 62 81 72 104 26z m-62 -312 c24 -29 27 -38 22
-83 -3 -29 -19 -77 -37 -111 -38 -74 -35 -95 27 -165 50 -55 89 -79 127 -79
29 0 50 38 69 126 10 51 11 51 36 38 14 -8 38 -14 53 -14 36 0 41 -11 39 -90
-1 -46 -15 -116 -46 -225 -55 -193 -65 -250 -66 -390 0 -60 -4 -132 -7 -160
l-7 -50 -63 81 c-62 81 -79 95 -195 168 -72 45 -164 136 -200 199 -16 26 -40
78 -54 115 -25 62 -27 78 -27 222 0 235 28 365 88 398 67 36 113 51 163 51 46
1 54 -2 78 -31z m-1895 -823 c340 -57 597 -131 840 -240 203 -91 407 -219 690
-433 330 -250 713 -672 919 -1012 30 -49 64 -101 76 -116 l21 -26 104 62 c145
86 232 157 224 184 -17 58 -97 263 -137 353 -72 162 -164 311 -303 493 -93
120 -162 241 -168 294 -3 23 -7 74 -9 114 l-3 73 29 -56 c19 -38 73 -103 160
-194 181 -188 265 -308 391 -558 92 -182 165 -376 185 -491 19 -105 -9 -161
-130 -259 -137 -111 -284 -161 -501 -170 -124 -5 -138 -4 -138 11 0 80 -269
470 -507 736 -283 316 -545 532 -868 715 -193 110 -349 173 -575 233 -205 54
-282 66 -455 66 -166 1 -208 -5 -352 -50 -74 -23 -302 -131 -356 -169 -12 -8
-25 -15 -29 -15 -14 0 59 95 132 171 39 41 76 83 82 93 10 18 7 19 -57 12 -73
-7 -214 -52 -310 -98 -91 -43 -245 -167 -336 -271 -183 -208 -307 -441 -418
-790 -44 -136 -91 -449 -91 -598 l0 -49 -77 0 -76 0 6 144 c11 241 46 432 124
671 88 271 133 358 339 660 30 43 227 243 292 295 85 68 254 165 348 199 148
54 211 61 479 57 220 -4 258 -7 455 -41z m1094 -1644 c218 -131 509 -242 801
-306 136 -30 138 -32 41 -40 -115 -10 -223 -1 -366 31 -142 32 -224 61 -366
130 -139 67 -186 101 -219 159 -22 37 -25 48 -15 60 19 23 36 19 124 -34z"/>
<path d="M2832 4683 l-53 -4 30 -35 c17 -19 34 -47 37 -62 13 -51 73 -191 101
-234 43 -68 150 -185 214 -234 32 -25 88 -59 125 -76 74 -35 74 -34 -28 -73
-36 -15 -72 -33 -79 -42 -21 -24 20 -50 91 -58 52 -6 58 -9 45 -22 -8 -8 -15
-24 -15 -35 0 -67 73 -256 137 -357 36 -56 253 -325 258 -319 5 6 -28 171 -70
353 -38 163 -87 413 -97 494 -2 18 -12 27 -43 36 -138 41 -280 145 -382 280
-47 61 -149 262 -176 345 -16 48 -16 48 -95 43z"/>
<path d="M6845 2903 c-93 -24 -382 -49 -436 -38 -22 5 -27 2 -32 -17 -3 -13
-21 -68 -41 -122 -20 -55 -35 -105 -32 -111 7 -19 115 -35 271 -42 140 -6 186
-1 301 33 l52 15 6 107 c4 59 8 128 10 155 2 26 0 46 -3 46 -3 -1 -46 -13 -96
-26z"/>
</g>
</svg>
