<?xml version="1.0" encoding="UTF-8" standalone="no"?>
<svg
   version="1.0"
   width="850.000000pt"
   height="850.000000pt"
   viewBox="0 0 850.000000 850.000000"
   preserveAspectRatio="xMidYMid meet"
   id="svg3"
   sodipodi:docname="logo-simple.svg"
   inkscape:export-filename="..\src\assets\images\logo-40.png"
   inkscape:export-xdpi="3.3859344"
   inkscape:export-ydpi="3.3859344"
   inkscape:version="1.3 (0e150ed6c4, 2023-07-21)"
   xmlns:inkscape="http://www.inkscape.org/namespaces/inkscape"
   xmlns:sodipodi="http://sodipodi.sourceforge.net/DTD/sodipodi-0.dtd"
   xmlns="http://www.w3.org/2000/svg"
   xmlns:svg="http://www.w3.org/2000/svg">
  <defs
     id="defs3" />
  <sodipodi:namedview
     id="namedview3"
     pagecolor="#ffffff"
     bordercolor="#000000"
     borderopacity="0.25"
     inkscape:showpageshadow="2"
     inkscape:pageopacity="0.0"
     inkscape:pagecheckerboard="0"
     inkscape:deskcolor="#d1d1d1"
     inkscape:document-units="pt"
     inkscape:export-bgcolor="#ffffff00"
     inkscape:zoom="0.73185552"
     inkscape:cx="866.29121"
     inkscape:cy="589.59725"
     inkscape:window-width="2560"
     inkscape:window-height="1369"
     inkscape:window-x="2552"
     inkscape:window-y="-8"
     inkscape:window-maximized="1"
     inkscape:current-layer="svg3" />
  <circle
     style="display:inline;fill:#b90000;fill-opacity:1;stroke-width:1.59462"
     id="path4"
     cx="417.41107"
     cy="424.8046"
     inkscape:label="path4"
     r="400" />
  <path
     id="path4-0"
     style="fill:#aa0000;fill-opacity:0.933333;stroke-width:1.59462"
     inkscape:label="path4"
     d="M 431.9027,25.286603 V 824.98874 A 400,400 0 0 0 828.78167,425.20944 400,400 0 0 0 431.9027,25.286603 Z" />
  <rect
     style="display:none;fill:#0055d4;fill-opacity:0.933333;stroke-width:0.75"
     id="rect4"
     width="849.55286"
     height="853.6521"
     x="-2.0495849"
     y="-2.0495849" />
  <path
     id="rect3"
     style="display:inline;fill:#e3dedb;fill-opacity:0.933333;stroke-width:0.75"
     d="M 851.02441,3.0741088 V 428.07362 853.07459 H 426.0249 1.0253906 v 0.57715 H 851.60303 V 3.0741088 Z"
     sodipodi:nodetypes="ccccccccc" />
  <text
     xml:space="preserve"
     style="font-size:557.014px;font-family:'Bradley Hand ITC';-inkscape-font-specification:'Bradley Hand ITC';fill:#f9f9f9;fill-opacity:1;stroke-width:2.90112"
     x="216.60652"
     y="579.2843"
     id="text4"
     transform="scale(0.94023023,1.0635693)"
     inkscape:label="text4"><tspan
       sodipodi:role="line"
       id="tspan4"
       style="font-style:normal;font-variant:normal;font-weight:normal;font-stretch:normal;font-size:557.014px;font-family:'Copperplate Gothic Bold';-inkscape-font-specification:'Copperplate Gothic Bold, ';fill:#f9f9f9;fill-opacity:1;stroke-width:2.90112"
       x="216.60652"
       y="579.2843">H</tspan></text>
  <path
     id="text4-1"
     style="font-size:278.507px;font-family:'Bradley Hand ITC';-inkscape-font-specification:'Bradley Hand ITC';fill:#cccccc;fill-opacity:1;stroke-width:2.90112"
     d="m 513.73514,221.65904 v 9.25782 c 6.13742,1.7356 10.39848,4.2421 12.78516,7.5205 2.38666,3.08554 3.58006,7.52128 3.58006,13.30664 V 379.02134 H 431.9031 v 65.08594 h 98.19726 v 142.3213 c 0,5.78534 -1.27772,10.31538 -3.83496,13.59374 -2.38686,3.08554 -6.5634,5.4978 -12.53026,7.2334 v 9.25488 h 108.9375 v -9.25488 c -6.13726,-1.92844 -10.39848,-4.43498 -12.78516,-7.5205 -2.38668,-3.08554 -3.58008,-7.5213 -3.58008,-13.30664 V 251.744 c 0,-5.78536 1.1934,-10.2211 3.58008,-13.30664 2.38668,-3.08554 6.6479,-5.59206 12.78516,-7.5205 v -9.25782 z" />
</svg>
