<?xml version="1.0" encoding="UTF-8" standalone="no"?>
<!-- Created with Inkscape (http://www.inkscape.org/) -->

<svg
   width="210mm"
   height="297mm"
   viewBox="0 0 210 297"
   version="1.1"
   id="svg1"
   xml:space="preserve"
   inkscape:version="1.3 (0e150ed6c4, 2023-07-21)"
   sodipodi:docname="logo.svg"
   xmlns:inkscape="http://www.inkscape.org/namespaces/inkscape"
   xmlns:sodipodi="http://sodipodi.sourceforge.net/DTD/sodipodi-0.dtd"
   xmlns="http://www.w3.org/2000/svg"
   xmlns:svg="http://www.w3.org/2000/svg"><sodipodi:namedview
     id="namedview1"
     pagecolor="#ffffff"
     bordercolor="#000000"
     borderopacity="0.25"
     inkscape:showpageshadow="2"
     inkscape:pageopacity="0.0"
     inkscape:pagecheckerboard="0"
     inkscape:deskcolor="#d1d1d1"
     inkscape:document-units="mm"
     inkscape:zoom="1.0449705"
     inkscape:cx="443.55317"
     inkscape:cy="550.73323"
     inkscape:window-width="2560"
     inkscape:window-height="1369"
     inkscape:window-x="2552"
     inkscape:window-y="-8"
     inkscape:window-maximized="1"
     inkscape:current-layer="layer1" /><defs
     id="defs1" /><g
     inkscape:label="Layer 1"
     inkscape:groupmode="layer"
     id="layer1"><path
       style="fill:#000000"
       d="m 92.277662,217.19133 c -2.86516,-0.51339 -3.30178,-1.37179 -1.78467,-3.50869 0.53604,-0.75504 1.67867,-2.36933 2.53917,-3.58733 1.81735,-2.57236 2.63717,-4.55482 2.63717,-6.37712 0,-1.77097 -0.32022,-2.48362 -2.08327,-4.63634 -2.20012,-2.68637 -2.64116,-3.37955 -3.21913,-5.05943 -1.29394,-3.76091 -0.31231,-7.54055 2.99607,-11.53592 0.9804,-1.18399 1.00668,-1.27326 1.27916,-4.34586 l 0.27819,-3.13704 -2.91827,-2.77812 c -2.72372,-2.59293 -3.0606,-3.03456 -2.97868,-3.90499 0.0172,-0.18321 1.93963,-2.38437 4.27198,-4.89147 2.33235,-2.50709 4.207582,-4.69557 4.167192,-4.86328 -0.0404,-0.16772 -2.176902,-2.15884 -4.747782,-4.42473 -2.57088,-2.26589 -4.73551,-4.21878 -4.81029,-4.33977 -0.0748,-0.12099 2.19608,-3.40523 5.04633,-7.29831 l 5.182292,-7.07833 0.83122,0.80565 c 0.45717,0.44311 0.947709,0.80565 1.090086,0.80565 0.14237,0 0.85108,-0.78754 1.5749,-1.7501 5.44447,-7.24017 14.5616,-11.7353 23.81557,-11.74209 l 2.12661,-0.002 1.21837,-1.25677 c 1.44856,-1.49421 2.0212,-2.55376 2.239,-4.14273 0.39119,-2.85405 -2.50097,-5.79465 -7.01702,-7.13454 -0.78271,-0.23223 -1.58638,-0.55774 -1.78593,-0.72337 -0.52904,-0.43906 -0.44358,-1.66877 0.15353,-2.20915 1.35375,-1.22512 7.14835,-0.52469 11.01269,1.33117 4.03408,1.93738 7.70717,6.50293 8.605,10.69581 0.19931,0.93074 0.26039,2.75147 0.16949,5.05187 l -0.14212,3.59666 0.83098,0.49087 c 1.43736,0.84907 5.36735,4.83655 6.77806,6.8772 1.66278,2.4053 3.49312,6.07059 4.09123,8.19277 0.24608,0.87313 0.50823,1.79586 0.58256,2.05052 0.0743,0.25466 0.36998,0.46302 0.65702,0.46302 0.28703,0 1.00341,0.24566 1.59195,0.54592 1.74357,0.8895 2.15664,2.17197 2.04349,6.3445 -0.0799,2.94709 -0.16472,3.4878 -0.64876,4.13687 -0.9381,1.25793 -1.91936,1.65567 -4.40357,1.78493 -2.38057,0.12386 -3.39204,0.4778 -4.33311,1.51629 -0.88634,0.97809 -1.15754,1.68341 -1.15754,3.01046 0,2.21385 1.19459,3.80728 3.28756,4.38518 0.8034,0.22183 0.90252,0.35626 1.00686,1.36564 0.17115,1.65559 0.0936,1.74153 -1.33204,1.47587 -1.92232,-0.35823 -2.1643,-0.47369 -3.42145,-1.63249 -2.52849,-2.33068 -3.27252,-5.79967 -1.85727,-8.65936 0.72789,-1.47081 0.61914,-1.68648 -0.77016,-1.52739 -1.21165,0.13874 -1.80829,1.65247 -1.80829,4.58775 0,2.16147 0.0816,2.55107 0.86962,4.15326 1.37714,2.79992 4.08402,4.81479 6.91959,5.15062 l 1.33891,0.15857 v 1.41836 1.41835 h -0.89817 c -1.31429,0 -4.07301,-0.91994 -5.52894,-1.84372 -3.34282,-2.12099 -5.43921,-5.57351 -5.67452,-9.34532 -0.12287,-1.96932 0.10815,-3.99044 0.60371,-5.28186 0.15583,-0.40607 -0.002,-0.46243 -1.29586,-0.46243 h -1.47332 l -0.30431,1.12448 c -0.50006,1.84777 -0.36419,6.15296 0.25676,8.13594 1.72287,5.5019 6.88277,9.71575 12.80274,10.4554 l 1.51191,0.1889 v 1.46126 1.46126 l -1.76548,-0.18088 c -6.67502,-0.68387 -13.03542,-5.70651 -15.13115,-11.94866 -0.79836,-2.37793 -1.14445,-5.70333 -0.83875,-8.05919 0.1411,-1.08738 0.26022,-2.12588 0.26471,-2.30778 0.006,-0.22889 -0.48267,-0.33073 -1.58588,-0.33073 -1.49308,0 -1.6122,0.0461 -1.88069,0.72761 -0.5177,1.31412 -0.36036,6.82582 0.26246,9.19427 1.65893,6.30851 6.08086,11.54288 12.10108,14.32439 2.01486,0.93092 6.00739,1.93711 7.71381,1.944 l 0.85989,0.003 v 1.45521 c 0,1.42574 -0.0154,1.45521 -0.75909,1.45521 -1.39338,0 -5.33961,-0.79492 -7.23684,-1.45778 -7.84515,-2.74093 -13.97678,-9.67621 -15.69419,-17.75117 -0.39528,-1.85857 -0.59637,-7.44164 -0.33256,-9.23376 0.0689,-0.4681 -0.0935,-0.5382 -1.40688,-0.60743 l -1.48477,-0.0783 -0.16596,1.0043 c -0.55513,3.35925 0.001,9.00933 1.24846,12.67509 3.33748,9.81046 12.9288,17.4597 22.9135,18.27388 3.01649,0.24597 3.1489,0.32819 2.98496,1.85334 -0.0754,0.70119 -0.15096,1.29225 -0.16798,1.31346 -0.017,0.0212 -1.21919,-0.0719 -2.67151,-0.20697 -3.20774,-0.29827 -5.06517,-0.74663 -8.27805,-1.99821 -1.34857,-0.52535 -2.4932,-0.90761 -2.54362,-0.84948 -0.0504,0.0581 -0.47265,1.2598 -0.93831,2.67038 -0.99587,3.01675 -2.31179,5.16804 -4.19697,6.86128 -2.3757,2.13384 -5.3632,3.12641 -9.44831,3.13914 -5.78056,0.018 -6.66247,0.47379 -15.23822,7.87548 -2.44494,2.11021 -5.95447,4.03588 -8.57428,4.70466 -1.997756,0.51 -6.175198,0.70461 -8.021878,0.37372 z m 8.154168,-3.40049 c 2.57538,-0.81005 4.69509,-2.19946 8.41537,-5.51603 6.39369,-5.69987 8.28802,-6.60031 14.60337,-6.94149 5.34877,-0.28896 7.60562,-1.20699 9.5198,-3.87244 1.26507,-1.76157 2.91563,-5.98156 2.91563,-7.45439 0,-0.43249 -3.22467,-2.70073 -3.54416,-2.49297 -0.16077,0.10455 -0.94715,0.61679 -1.74751,1.13833 -3.37488,2.19914 -9.72563,4.30065 -12.8994,4.26849 -3.61426,-0.0366 -5.6962,-1.48453 -9.11977,-6.34243 -2.74009,-3.88808 -3.41953,-4.40997 -5.72618,-4.39842 -0.96563,0.005 -2.74515,0.22672 -3.954486,0.49308 -2.077012,0.45746 -2.262602,0.55722 -3.350882,1.80128 -0.63365,0.72436 -1.48966,1.92597 -1.90225,2.67026 -0.65965,1.18998 -0.74988,1.62457 -0.74787,3.6022 0.003,2.62839 0.12961,2.92044 2.64663,6.0893 2.402082,3.02415 2.838872,3.95465 2.978932,6.34612 0.0907,1.54931 -0.006,2.34689 -0.44347,3.63787 -0.57235,1.6909 -2.141512,4.46692 -3.498792,6.18978 -0.41775,0.53027 -0.75954,1.11331 -0.75954,1.29565 0,0.49948 4.505292,0.14926 6.614578,-0.51419 z m 18.78542,-24.04971 c 0,-0.11629 -0.40952,-0.35951 -0.91004,-0.54051 -1.38225,-0.49982 -3.44008,-2.49537 -4.05949,-3.93663 -0.29891,-0.6955 -0.97606,-2.73984 -1.50478,-4.54297 -0.52871,-1.80313 -1.19059,-3.72787 -1.47084,-4.2772 -1.46998,-2.88139 -5.9666,-3.73452 -10.95872,-2.07916 l -2.461626,0.81626 -0.16517,1.20504 c -0.0908,0.66277 -0.16517,1.73942 -0.16517,2.39256 v 1.18751 l 1.12448,-0.18771 c 3.387766,-0.5655 4.303126,-0.62329 5.772686,-0.36443 2.40264,0.42322 3.66534,1.42701 6.06394,4.82057 2.17864,3.08236 3.57138,4.58371 4.89827,5.28025 0.81722,0.42898 3.83646,0.60718 3.83646,0.22642 z m 8.1053,-2.69937 c 3.32993,-1.69399 3.25195,-1.55868 1.87359,-3.25094 -3.54935,-4.35763 -5.86619,-9.36905 -6.81464,-14.74034 -0.33789,-1.91359 -0.42155,-7.36532 -0.13317,-8.67833 l 0.18595,-0.84667 -10.67049,0.004 c -5.86878,0.002 -10.80466,0.0915 -10.96863,0.19844 -0.16397,0.10691 -2.110236,2.15892 -4.325048,4.56001 l -4.02693,4.36563 2.0761,1.92303 c 1.21256,1.12318 2.24117,1.87415 2.472972,1.80551 0.21828,-0.0646 1.28984,-0.43857 2.38125,-0.83095 3.896346,-1.4008 9.065046,-1.15661 11.689106,0.55224 2.25241,1.46683 3.15063,3.04386 4.49713,7.89573 1.12626,4.0583 1.77302,5.2586 3.32508,6.17093 1.05081,0.61769 5.00342,1.86855 6.05648,1.91667 0.16505,0.008 1.23661,-0.46271 2.38125,-1.04501 z m -8.63447,-33.82985 v -3.40316 l -1.52135,-0.17621 c -5.13065,-0.59426 -11.37752,-3.62457 -16.69653,-8.09936 -1.070306,-0.90043 -2.036216,-1.53653 -2.146476,-1.41357 -0.11025,0.12297 -1.661922,2.22704 -3.448142,4.67571 -2.73624,3.75099 -3.18988,4.5067 -2.88061,4.79869 0.20189,0.19061 2.07831,1.84832 4.16982,3.68381 l 3.802751,3.33724 h 9.360267 9.36027 z m 36.765,3.02084 c 0.17451,-0.21027 0.27838,-0.65675 0.23083,-0.99218 l -0.0865,-0.60988 -16.13958,-0.0717 c -8.87677,-0.0394 -16.52654,-0.004 -16.99949,0.0781 -0.77528,0.13506 -0.85988,0.23973 -0.85988,1.06385 v 0.91405 h 16.76864 c 14.29879,0 16.81538,-0.0563 17.08594,-0.38231 z m 0.18746,-4.79393 c 0.0873,-0.22756 0.0266,-0.70381 -0.13492,-1.05834 l -0.2937,-0.64458 H 138.40521 121.5985 v 0.88194 c 0,0.48507 0.0794,0.96132 0.17639,1.05834 0.097,0.097 7.72075,0.17639 16.94163,0.17639 14.96223,0 16.78233,-0.0445 16.92402,-0.41375 z m -4.40871,-5.1199 c 0,-0.85949 -1.55392,-4.62965 -2.69593,-6.54095 -0.5968,-0.99881 -1.73021,-2.58993 -2.5187,-3.53582 -1.42822,-1.71333 -4.41645,-4.49792 -4.82685,-4.49792 -0.1187,0 -0.48257,0.65726 -0.80861,1.46057 -1.24671,3.07168 -4.88147,7.26433 -7.76036,8.95147 -2.59986,1.52363 -4.6069,2.10733 -7.33217,2.13241 -2.38362,0.0219 -2.62996,-0.029 -4.34146,-0.89753 -6.08269,-3.08679 -6.22031,-11.3793 -0.25979,-15.65401 1.4707,-1.05474 1.15371,-1.21066 -1.30298,-0.64092 -4.47387,1.03756 -8.95015,3.44407 -12.28286,6.60344 -1.87056,1.77327 -4.55362,5.00574 -4.55362,5.48607 0,0.34581 3.62845,2.96124 5.95312,4.29108 2.42012,1.38443 6.08707,2.68003 8.59896,3.03816 0.94589,0.13486 9.01237,0.25989 17.92552,0.27786 15.79965,0.0318 16.20573,0.02 16.20573,-0.47391 z m -22.651,-5.62116 c 4.72448,-1.56868 8.76936,-6.45294 10.24965,-12.37663 0.45321,-1.81359 0.53653,-2.79044 0.44407,-5.20604 -0.10608,-2.77125 -0.17908,-3.10559 -1.07298,-4.91428 -1.05792,-2.14055 -3.27733,-4.58839 -5.16121,-5.69242 -0.63086,-0.36971 -1.19721,-0.62201 -1.25855,-0.56067 -0.0613,0.0613 0.28538,0.66979 0.77049,1.35211 1.65735,2.3311 1.85262,4.55495 0.67607,7.69956 -0.84845,2.26769 -3.25845,4.56917 -7.21215,6.88739 -3.80869,2.2332 -5.22244,3.4435 -6.11532,5.23527 -0.89948,1.80502 -0.89931,3.37719 5.7e-4,5.18301 1.49437,2.99881 4.42266,3.80607 8.67936,2.3927 z"
       id="path1" /><text
       xml:space="preserve"
       style="font-size:28.2222px;font-family:'Copperplate Gothic Bold';-inkscape-font-specification:'Copperplate Gothic Bold, ';fill:#1a1a1a;stroke-width:0.264583"
       x="45.069054"
       y="234.96675"
       id="text1"><tspan
         sodipodi:role="line"
         id="tspan1"
         x="45.069054"
         y="234.96675"
         style="font-style:normal;font-variant:normal;font-weight:300;font-stretch:normal;font-size:28.2222px;font-family:'Nordica Plus';-inkscape-font-specification:'Nordica Plus Light';stroke-width:0.264583">heimdall</tspan></text><text
       xml:space="preserve"
       style="font-style:normal;font-variant:normal;font-weight:300;font-stretch:normal;font-size:7.05556px;font-family:'Nordica Plus';-inkscape-font-specification:'Nordica Plus Light';fill:#1a1a1a;stroke-width:0.264583"
       x="100.79515"
       y="243.57545"
       id="text2"><tspan
         sodipodi:role="line"
         id="tspan2"
         x="100.79515"
         y="243.57545"
         style="font-size:7.05556px;stroke-width:0.264583">Parks 'n Peaks</tspan></text></g></svg>
