<?xml version="1.0" encoding="UTF-8" standalone="no"?>
<!-- Created with Inkscape (http://www.inkscape.org/) -->

<svg
   width="210mm"
   height="297mm"
   viewBox="0 0 210 297"
   version="1.1"
   id="svg1"
   inkscape:version="1.3 (0e150ed6c4, 2023-07-21)"
   sodipodi:docname="logo.svg"
   xmlns:inkscape="http://www.inkscape.org/namespaces/inkscape"
   xmlns:sodipodi="http://sodipodi.sourceforge.net/DTD/sodipodi-0.dtd"
   xmlns="http://www.w3.org/2000/svg"
   xmlns:svg="http://www.w3.org/2000/svg">
  <defs
     id="defs1" />
  <g
     inkscape:label="Layer 1"
     inkscape:groupmode="layer"
     id="layer1">
    <path
       id="rect1"
       style="fill:#cccccc;stroke-width:0.264583"
       d="M 94.685693 66.180973 C 94.509307 66.216251 93.309478 66.357674 92.004203 66.498783 C 86.853663 67.098505 83.855275 69.814771 83.079167 74.471423 C 82.761667 76.446973 83.290738 78.210676 85.619063 83.255383 C 87.841557 88.088424 88.68837 91.087101 89.28809 96.343473 C 89.923087 101.77623 89.147005 105.79822 86.50118 110.56069 C 83.855355 115.39374 77.78738 121.70812 72.389897 125.3417 C 69.14435 127.49365 64.09988 129.53979 59.619617 130.49229 L 57.326217 130.98632 L 58.913717 131.02146 C 59.795658 131.05674 63.605673 130.73927 67.380383 130.35122 C 75.811748 129.46927 87.27703 129.39889 92.392293 130.175 C 96.555059 130.81 103.39922 132.53841 106.22142 133.66729 C 111.72475 135.88979 117.36924 140.19386 119.83868 144.07441 C 122.30812 147.91968 127 158.07965 127 159.56132 C 127 160.47854 126.29437 161.04288 125.16549 161.04288 C 124.60104 161.04288 122.55514 160.2318 120.61486 159.24403 C 117.36931 157.62125 117.0516 157.40958 117.22799 156.59819 L 117.36906 155.75122 L 115.39347 156.88035 C 114.29986 157.48007 113.24184 158.11486 113.06545 158.25597 C 111.79545 159.20847 101.63536 162.73622 95.885103 164.21788 C 88.229849 166.19344 85.513463 166.44076 83.044027 165.31187 C 81.315419 164.53576 79.72795 162.59517 79.72795 161.2899 C 79.72795 159.84351 80.962296 160.09063 81.80896 161.64285 C 82.020626 162.10146 82.514895 162.45417 82.90295 162.45417 C 84.561 162.45417 100.92992 157.93837 106.18628 156.03337 C 112.53628 153.74032 114.01788 152.64691 115.99344 148.83691 C 117.22816 146.4733 117.3691 145.94393 116.69882 146.50837 C 115.11132 147.77837 99.377651 153.24655 91.898783 155.08097 C 77.540771 158.60875 68.050632 159.31448 57.855383 157.55059 C 50.059018 156.21004 43.709258 153.7758 39.26427 150.42441 C 34.466507 146.82608 32.984617 144.85045 32.702397 141.71073 L 32.56132 139.84108 L 33.654793 140.86427 C 35.771454 142.91038 41.486675 146.47347 44.45 147.60236 C 51.57609 150.35402 63.076802 151.62375 74.18927 150.84764 C 87.171454 150.00097 97.119734 147.10833 103.71667 142.34583 C 105.6922 140.89945 105.7983 140.68792 104.31663 141.25236 C 102.58802 141.92264 88.970369 144.78014 84.313717 145.48569 C 69.144316 147.74347 54.927296 147.03774 44.09705 143.54524 C 38.840676 141.85193 33.478637 138.39462 30.55059 134.83156 C 28.751429 132.60909 26.84618 128.65785 26.24646 125.72979 C 25.505629 122.34315 25.788093 114.15869 26.846423 106.00955 C 27.904754 98.28374 28.010656 84.560583 27.093437 80.891703 C 26.035106 76.799493 24.482633 73.977666 21.730973 71.261283 C 19.261537 68.791847 16.86301 67.486524 13.299963 66.63986 C 12.347466 66.428194 12.311981 66.463543 12.558923 67.41604 C 12.982256 69.250479 14.393512 71.578792 16.757117 74.436283 C 20.814049 79.375158 22.754064 84.52561 23.177397 91.404757 C 23.530172 97.578348 22.613044 102.02336 18.520833 114.3 C 15.557509 123.15469 14.816667 126.54136 14.816667 131.37441 C 14.816667 139.80577 17.180155 146.96719 22.26014 154.12858 C 26.422906 159.94938 30.79769 163.72417 36.86545 166.6875 C 41.239882 168.83944 42.474634 169.22726 47.97795 170.32087 C 55.668482 171.87309 58.631593 172.12011 68.68573 172.15538 C 76.305707 172.15538 78.316667 172.26149 78.316667 172.61427 C 78.316667 172.86121 78.880939 174.90698 79.551217 177.20004 C 82.937872 188.73584 85.583873 193.42813 92.216077 199.74285 L 96.273193 203.55295 L 97.507743 208.0333 C 99.059962 213.5366 99.942062 215.93528 102.2351 220.6625 C 104.84566 226.09525 107.24438 229.76438 110.34882 233.04521 C 113.02993 235.90268 114.15906 236.9257 123.78986 244.96903 C 126.43569 247.15623 129.43396 249.69591 130.49229 250.61313 C 131.55063 251.49507 133.20906 252.87094 134.23212 253.64705 C 135.21989 254.42316 137.30094 256.01083 138.81788 257.175 C 142.62788 260.10305 154.12868 267.58201 156.35118 268.53451 C 157.16257 268.92257 157.02123 268.46413 154.55181 264.12496 C 153.03486 261.47915 150.70663 257.24562 149.36608 254.77618 C 146.50858 249.44926 144.49781 247.08576 137.97142 241.51187 C 129.0109 233.78607 125.94146 229.65831 124.14229 222.77917 C 123.26035 219.35723 121.03802 203.6235 120.79108 198.79045 C 120.4383 193.00492 122.34337 184.3263 124.74226 180.72799 C 125.76531 179.10521 125.80069 178.82306 124.84819 178.32917 C 124.07208 177.87056 122.27302 178.39952 121.77913 179.17563 C 121.63802 179.38729 120.68552 180.19903 119.66246 180.93986 C 117.2636 182.66847 115.5701 182.91517 112.28927 181.9274 C 105.58652 179.84601 100.15378 175.11871 99.307117 170.56788 L 99.095243 169.33333 L 102.37618 168.69823 C 104.17534 168.34545 107.77354 167.32229 110.34882 166.47563 L 115.07618 164.88813 L 116.41667 166.12319 C 119.0272 168.45152 124.03686 169.08656 128.41128 167.56962 C 130.03406 167.00517 133.94996 164.28864 134.47913 163.37142 C 134.6908 163.01865 134.54965 162.34844 134.09104 161.50177 C 133.73826 160.76094 132.7501 158.25628 131.93872 155.92795 C 128.76372 146.79103 126.29454 141.95781 122.8726 137.97142 C 117.61624 131.90367 110.7723 127.91726 102.76427 126.32976 C 98.389838 125.44781 92.180824 124.95406 88.9 125.23628 C 86.113064 125.48323 80.115658 126.47083 78.492883 127 C 77.822608 127.21167 77.822746 127.17632 78.457743 126.75299 C 83.220231 123.43688 86.853654 119.76783 89.35837 115.67563 C 94.508911 107.17371 94.791202 95.038056 90.13455 82.479203 C 87.982612 76.587832 87.982959 76.164846 90.84045 71.931527 C 92.110447 70.06181 93.556704 68.01552 94.05059 67.345243 C 94.579754 66.674968 94.826804 66.180973 94.685693 66.180973 z M 83.39646 135.64288 C 78.70453 135.64288 74.824132 135.7134 74.753577 135.78396 C 74.683021 135.85452 67.592129 135.9957 59.019653 136.03097 C 50.411902 136.10153 43.391667 136.24281 43.391667 136.38392 C 43.391667 136.56031 44.696778 137.01889 46.742883 137.58333 C 52.951754 139.20611 71.790483 139.20611 83.432117 137.58333 C 86.607108 137.12472 91.228473 136.20726 91.510693 135.92504 C 91.72236 135.78393 88.053112 135.64288 83.39646 135.64288 z M 257.38687 140.3351 C 257.31632 140.26455 257.2458 141.42834 257.2458 142.94528 C 257.2458 147.91942 255.76366 154.19902 253.78813 157.86788 C 249.5548 165.62899 240.91168 173.35504 232.23337 177.12976 C 230.78698 177.72948 229.51715 178.32913 229.41132 178.47024 C 229.23493 178.61135 231.14017 183.30326 231.59878 183.90299 C 231.98684 184.39688 244.43985 179.52857 248.2851 177.41191 C 251.07205 175.85969 256.71639 170.39166 257.70417 168.275 L 258.37441 166.86372 L 258.65656 168.76903 C 258.83295 169.82736 260.45601 176.74169 262.29045 184.15 C 264.12489 191.59358 265.64167 197.7317 265.64167 197.83754 C 265.64167 197.94337 264.79493 197.20281 263.80715 196.17976 C 261.76106 194.16893 258.30397 192.33434 250.93094 189.33573 C 248.17927 188.20684 246.59167 187.7483 246.59167 187.99524 C 246.59167 188.59496 247.43847 191.2409 248.14403 192.86368 C 248.46153 193.60451 248.70833 194.31021 248.70833 194.41604 C 248.70833 194.55715 247.47351 194.66267 245.95656 194.6274 L 243.24045 194.59226 L 245.49819 195.08628 C 248.92013 195.86239 256.18735 198.33146 259.3976 199.81313 C 265.71232 202.77644 270.22802 207.46843 274.17913 215.15896 C 275.48441 217.69896 276.54267 219.60396 276.57795 219.39229 C 276.57795 218.65146 275.16684 211.77265 273.93212 206.72795 C 272.13295 199.28437 269.73389 189.37093 268.2875 183.26788 C 265.39472 171.06182 259.6092 147.91975 258.62142 144.32142 C 258.0217 142.20478 257.45743 140.40566 257.38687 140.3351 z M 134.51427 169.19226 C 134.19677 169.22753 130.77448 170.56785 130.63337 170.70896 C 130.4217 170.88535 135.43136 178.29396 136.66608 179.63451 C 137.30108 180.37535 137.93625 181.32785 138.07736 181.75118 C 138.3243 182.49201 138.25371 182.52715 137.1601 182.31549 C 135.60788 182.03326 133.4558 181.36312 131.90358 180.69285 C 131.2333 180.37535 130.52774 180.23393 130.31608 180.37504 C 129.6458 180.83365 127.2467 184.50264 126.40004 186.30181 C 125.16532 189.05345 124.17795 193.32202 124.17795 196.10896 C 124.17795 198.8959 124.45986 199.6367 125.44764 199.42504 C 126.15319 199.3192 126.15344 199.31925 128.69344 193.85122 C 129.64594 191.80511 131.26847 188.9476 132.32681 187.50122 C 134.19651 184.89066 134.19663 184.8558 134.54941 185.8083 C 134.93747 186.90191 135.78402 187.11323 140.40538 187.21906 C 143.89788 187.3249 145.23858 186.76066 146.19108 184.7851 C 146.93191 183.1976 146.8968 182.10376 146.01486 180.3399 C 145.13292 178.61129 139.31203 172.54357 136.63094 170.53274 C 135.60788 169.75663 134.65538 169.15698 134.51427 169.19226 z M 89.884953 170.03407 C 91.087151 170.03903 91.193297 170.35622 91.61663 171.62622 C 92.569128 174.55426 96.166984 181.64511 97.825037 183.79705 C 101.42337 188.55955 106.43289 192.22861 111.30122 193.675 C 112.39483 193.9925 112.74788 194.31021 112.81844 194.94521 C 113.17121 197.80269 114.8999 206.62179 116.24045 212.37205 C 117.72212 218.79259 118.88594 224.61337 118.70955 224.82504 C 118.53316 225.0367 110.8783 215.54701 109.6083 213.57146 C 107.35052 210.00841 104.775 203.341 104.775 200.9774 C 104.775 200.58934 105.02194 200.02507 105.30417 199.74285 C 105.76278 199.28424 105.5511 199.17833 103.71667 198.96667 C 101.21195 198.68444 99.765691 197.76746 100.50653 196.9208 C 100.75347 196.6033 102.02344 195.96788 103.29344 195.43872 C 106.89176 194.06288 106.89153 194.0984 104.28097 192.86368 C 102.9757 192.26396 101.00031 191.06465 99.871423 190.18271 C 97.613651 188.4541 93.838955 184.32627 92.322013 181.9274 C 91.334237 180.41045 89.217534 175.47177 88.758923 173.6726 C 88.65309 173.14344 88.053297 172.15542 87.453577 171.48514 L 86.395243 170.25059 L 88.264897 170.10951 C 88.961631 170.06542 89.48422 170.03241 89.884953 170.03407 z M 224.75476 172.36726 C 224.64892 172.36726 222.95573 173.24937 221.01545 174.30771 C 219.07517 175.33076 217.3466 176.24788 217.17021 176.31844 C 216.11187 176.67121 224.57827 204.75246 226.23632 206.4458 C 226.30688 206.51635 227.71813 206.09278 229.90535 205.31667 C 230.22285 205.21083 230.18736 204.85799 229.69347 204.01132 C 228.17653 201.36549 223.27302 186.12559 222.39108 181.36309 C 222.10885 179.77559 221.79139 178.15267 221.72083 177.69406 C 221.43861 176.42406 222.0734 176.81212 222.56729 178.22323 C 222.84952 178.92878 223.8024 181.11625 224.71962 183.05653 C 227.85932 189.724 230.61084 196.32084 233.3625 203.72917 C 234.38555 206.55137 235.585 209.62056 236.00833 210.60833 C 236.64333 212.05472 236.71379 212.58406 236.43156 213.60712 C 236.2199 214.27739 235.69063 217.52288 235.26729 220.76844 C 234.73813 224.71952 234.35011 226.62469 234.06788 226.55413 C 233.85622 226.4483 232.33944 226.69486 230.71667 227.04764 C 229.05861 227.40042 225.38965 227.89431 222.53215 228.10597 C 215.08857 228.70569 213.99484 228.49409 206.41014 224.64882 C 200.41294 221.61493 193.18128 217.52257 192.44045 216.74646 C 192.19351 216.46424 192.22837 216.28799 192.54587 216.18215 C 192.79281 216.07632 193.71031 214.5948 194.59226 212.83094 L 196.17976 209.65594 L 195.12142 205.91663 C 194.55698 203.83524 193.85142 200.80094 193.53392 199.14288 C 193.2517 197.48483 192.51101 193.781 191.91128 190.85295 C 190.88823 186.05518 190.85271 185.49073 191.31132 184.50295 C 191.62882 183.83267 191.69958 183.16233 191.52319 182.66844 C 191.24097 181.9276 191.24084 181.9276 188.24226 183.1976 C 186.19615 184.07955 185.20833 184.67906 185.20833 185.1024 C 185.20833 185.4199 186.09045 188.55973 187.14878 192.0875 C 189.75934 200.83636 189.79444 200.16615 186.79583 200.94226 C 185.45528 201.29503 182.80958 201.75378 180.93986 201.96545 C 176.6007 202.45934 173.6725 202.00035 169.8625 200.34229 C 168.31028 199.63674 165.69972 198.61399 164.04167 198.01427 C 161.39584 197.06177 160.72566 196.95576 158.32677 197.13215 C 156.8451 197.23799 155.11639 197.55531 154.51667 197.83754 C 153.49361 198.3667 153.3876 198.36691 152.57622 197.52024 C 150.88288 195.82693 147.84899 196.85002 146.75538 199.49583 C 146.40261 200.37778 146.40274 200.97767 146.72024 202.49462 C 147.07302 204.11739 147.42594 204.61087 148.80177 205.77504 C 151.27121 207.82113 151.69448 207.99792 152.78809 207.39819 C 153.5642 207.01014 153.77583 206.58684 153.9875 205.14045 C 154.26972 203.1649 154.19943 203.23548 157.76246 202.88271 C 160.33774 202.60048 162.63051 203.12969 166.96965 204.8583 C 170.85021 206.41052 174.69566 207.25712 177.90594 207.25712 C 179.6698 207.25712 186.40791 206.0576 191.1351 204.89344 C 191.73483 204.75233 191.91128 204.85816 191.91128 205.4226 C 191.91128 205.95177 189.54757 210.92589 185.98451 217.87559 C 185.94924 217.98142 186.90174 218.72212 188.10118 219.49823 C 192.1934 222.10878 199.10778 226.41304 203.72917 229.19996 C 209.02081 232.44552 209.09149 232.48063 208.5976 233.08035 C 208.38594 233.32729 206.76286 237.98389 204.96372 243.41667 C 200.73039 256.293 198.47257 262.04329 194.52146 270.15715 L 193.35771 272.55597 L 195.01549 271.14521 C 200.09546 266.8766 204.18784 260.38549 207.82142 250.8958 L 209.02083 247.79108 L 210.96128 247.96729 C 212.01962 248.1084 215.15907 248.28507 217.91073 248.42618 C 223.55515 248.67312 227.0124 248.24951 230.61073 246.90896 L 232.86847 246.0625 L 232.65712 248.24996 C 232.55128 249.48468 232.23358 254.03511 231.91608 258.40955 C 231.52802 264.51258 229.09409 288.81909 227.75354 300.46073 L 227.61246 301.80122 L 230.36372 301.80122 L 233.15063 301.80122 L 233.32736 300.63746 C 233.43319 300.03774 233.57396 298.62622 233.67979 297.56788 C 233.78563 296.50955 234.24424 292.13525 234.73813 287.86667 C 235.23202 283.59806 236.11413 274.77859 236.67858 268.2875 C 237.66635 257.17503 237.94844 253.25937 238.83038 238.72496 C 239.57122 226.62474 240.87663 213.88937 241.44108 212.93687 C 241.54691 212.79576 239.95961 208.63289 237.94878 203.69403 C 235.97325 198.75514 233.25649 192.12277 231.95122 188.9125 C 230.68122 185.70223 228.91736 181.57489 228.10597 179.74045 C 227.25931 177.90601 226.23656 175.47173 225.77795 174.34285 C 225.31934 173.24924 224.86059 172.33198 224.75476 172.36726 z M 113.16777 172.72744 C 112.772 172.755 112.49222 172.84361 112.39521 173.00236 C 112.11298 173.46097 113.62972 175.57747 114.82917 176.35358 C 115.92278 177.09441 118.63927 177.05913 120.75594 176.35358 C 122.59036 175.71858 122.62562 175.33073 120.89701 174.97795 C 120.29729 174.83684 118.99181 174.30743 118.03931 173.84882 C 116.5841 173.10799 114.35509 172.64476 113.16777 172.72744 z M 213.6774 176.03628 C 213.57156 176.00101 207.64507 179.14045 206.62201 179.81073 L 205.70476 180.44583 L 206.51608 182.45656 C 206.93941 183.58545 208.31542 187.6074 209.51486 191.38212 C 210.7143 195.15682 212.2666 199.77792 212.93687 201.64764 C 213.60715 203.48208 214.13628 205.21094 214.13628 205.4226 C 214.13628 205.66955 215.01785 205.38722 216.21729 204.7875 C 217.34618 204.18778 218.47524 203.72917 218.68691 203.72917 C 219.21608 203.72917 219.25159 203.87039 217.69937 200.51903 C 216.95854 198.89625 215.51177 194.94482 214.48872 191.73455 C 213.50094 188.52428 212.44292 185.38445 212.16069 184.74945 C 211.49042 183.16195 212.12521 183.6208 213.00715 185.34941 C 213.43049 186.12552 214.34785 187.57215 215.08868 188.59521 L 216.42917 190.5 L 216.5351 189.33573 C 216.60566 188.73601 216.25281 186.90177 215.75892 185.31427 C 215.26503 183.69149 214.63 180.97503 214.3125 179.24642 C 214.03028 177.51783 213.74795 176.07156 213.6774 176.03628 z M 58.208333 176.56545 L 56.867847 176.63573 C 56.162292 176.67101 54.750901 176.74139 53.763127 176.81195 L 51.92913 176.95354 L 52.105347 182.13927 C 52.387567 190.32369 51.08242 197.44973 47.836873 205.31667 C 45.826046 210.1497 44.34402 212.4075 40.780973 215.9 C 37.782371 218.86333 33.055341 222.28531 31.467847 222.63809 C 30.938681 222.74392 30.268505 222.95549 29.986283 223.06132 C 29.704063 223.20243 35.419084 223.3791 42.686283 223.52021 C 58.914014 223.80243 65.546325 224.47267 79.72795 227.36545 C 85.901543 228.63545 94.897303 231.28091 99.20118 233.15063 L 100.50653 233.71545 L 99.836283 232.55118 C 99.483508 231.95146 98.742291 229.9408 98.213127 228.14163 C 97.437016 225.53108 97.119756 224.93094 96.696423 225.07205 C 94.791429 225.81288 89.958333 225.46048 89.958333 224.57854 C 89.958333 224.40215 90.381566 223.34375 90.91073 222.21486 C 91.757394 220.38042 91.863127 219.67455 91.863127 216.60538 C 91.863127 214.52402 91.722117 212.79538 91.439897 212.37205 C 91.051841 211.70177 91.051944 211.70212 91.016667 212.54878 C 90.981389 214.98295 88.47642 220.41576 86.712537 221.93271 C 85.301429 223.09687 82.90295 223.16701 82.90295 222.03813 C 82.90295 221.61479 83.432085 220.38048 84.10236 219.28687 C 85.936799 216.25301 86.818439 212.76014 86.95955 207.99764 C 87.065383 204.43459 87.065418 204.22292 86.818473 206.41014 C 86.148198 211.94873 84.807629 214.87671 81.526807 217.94587 C 79.022091 220.2742 76.623155 221.22677 74.25955 220.83872 C 73.377608 220.73288 72.601529 220.48632 72.530973 220.34521 C 72.42514 220.2041 73.342641 218.40462 74.57736 216.32323 C 77.893462 210.74937 79.445659 205.03425 79.480937 198.08455 C 79.516214 194.34511 79.37496 193.60444 77.928577 188.38333 L 76.376217 182.77437 L 75.952987 186.79583 C 75.74132 189.01833 75.036005 193.39261 74.436283 196.49705 C 71.931569 209.44396 70.661582 211.84288 66.357707 211.84288 L 64.62913 211.84288 L 65.12264 209.97323 C 66.110415 206.23379 67.098301 198.4373 67.345243 192.26372 C 67.486354 188.77122 67.592394 185.87871 67.557117 185.84344 C 67.557117 185.80816 66.639616 186.0551 65.51073 186.3726 L 63.5 186.97205 L 63.5 189.65354 C 63.5 192.54632 62.159648 199.88367 61.06604 203.1292 C 59.972432 206.3042 57.82024 210.11431 56.232743 211.70181 C 54.574693 213.35984 51.646658 214.6301 48.683333 214.9476 L 46.77854 215.12382 L 48.08337 213.39524 C 52.17558 208.03305 53.339868 205.77508 55.068473 199.67205 C 56.620692 194.34513 57.432222 189.58293 57.679167 184.50295 C 57.785 181.96295 57.961561 179.17573 58.032117 178.22323 L 58.208333 176.56545 z M 202.52976 177.27083 C 202.03587 177.30611 195.19215 181.61017 194.41604 182.38628 L 193.56906 183.23274 L 195.79167 190.39406 C 197.02639 194.34517 198.79021 199.77823 199.77799 202.49462 C 200.73049 205.21098 201.82441 208.31531 202.21246 209.40892 L 202.88271 211.41965 L 205.06965 210.32618 C 206.2691 209.76174 207.29198 209.23247 207.36254 209.16191 C 207.43309 209.12663 207.22153 208.59736 206.93931 207.99764 C 206.62181 207.4332 205.66944 205.06982 204.7875 202.77677 C 203.94083 200.48372 202.31802 196.46175 201.22441 193.85122 C 198.93136 188.38317 198.15524 186.09045 198.57858 186.09045 C 198.93135 186.09045 200.97757 190.81747 202.38868 194.87441 C 202.88257 196.35608 203.44698 197.6968 203.58809 197.87319 C 203.76448 198.08486 204.47 197.94344 205.31667 197.55538 C 206.90417 196.84983 206.86889 196.8851 206.375 195.96788 C 205.74 194.76844 203.16465 182.84482 202.95299 180.0226 C 202.84715 178.50566 202.63559 177.27083 202.52976 177.27083 z M 142.3386 190.73513 C 142.19083 190.71502 142.03691 190.7249 141.87816 190.76458 C 141.24316 190.92333 140.52913 191.5582 139.80594 192.65181 C 139.20622 193.60431 137.83045 193.74555 135.29045 193.14583 C 133.87934 192.82833 133.87911 192.8283 131.90358 194.87441 C 129.89275 196.92052 127.70538 200.83622 127.70538 202.31788 C 127.70538 202.98816 127.98792 202.81205 129.61069 201.18927 C 132.39764 198.33177 133.98487 197.69691 138.67681 197.44996 C 142.27512 197.27357 142.59295 197.20302 143.22795 196.39163 C 144.03934 195.36858 144.14524 193.0751 143.47496 191.73455 C 143.1707 191.12601 142.78191 190.79544 142.3386 190.73513 z M 138.53573 201.64764 C 136.77184 201.64764 135.1493 202.17701 132.78569 203.44701 C 130.66905 204.61118 129.68097 209.19725 129.68097 217.4875 C 129.68097 222.56748 129.75143 223.13186 130.63337 225.31906 C 131.12726 226.62434 131.97424 228.45896 132.53868 229.37618 C 133.80868 231.59868 137.05409 234.80892 139.59406 236.39642 C 143.68628 238.9717 144.28601 239.46572 146.47323 242.32319 L 148.69583 245.18038 L 148.94285 243.41667 C 149.04868 242.42889 149.18986 239.88871 149.18986 237.77205 C 149.22514 232.83317 149.57763 230.8223 151.51788 224.01372 C 152.61149 220.16844 153.10576 217.69899 153.14104 216.07622 C 153.2116 213.28927 153.0349 212.90122 151.7649 212.90122 C 151.23573 212.90122 150.38913 212.68993 149.89524 212.40771 C 149.0133 211.9491 148.97781 211.94905 148.62504 213.74819 C 147.95476 216.85263 147.21413 218.19288 146.19108 218.19288 C 144.85052 218.19288 143.47462 217.34625 141.71073 215.40597 C 139.52351 212.93655 139.41778 212.19569 140.75833 209.58514 C 141.39333 208.3857 141.95785 206.69267 142.06368 205.66962 C 142.24007 204.08212 142.13417 203.76468 141.2875 202.74163 C 140.44083 201.71858 140.15851 201.61236 138.53573 201.64764 z M 52.489819 230.31514 C 47.631422 230.41436 45.402695 230.91056 41.486873 232.33931 C 38.170773 233.53875 32.208706 236.96066 29.210103 239.35955 C 26.917056 241.19399 19.967254 248.24972 18.908923 249.76667 C 11.641724 260.42053 10.054399 263.48975 6.9499634 273.05 C 4.1983047 281.48136 2.963091 288.21951 2.5750366 296.72142 L 2.36368 301.80122 L 5.0446533 301.80122 L 7.7612834 301.80122 L 7.7612834 300.07264 C 7.7612834 294.81628 9.4192064 283.77454 10.971423 278.97677 C 14.887245 266.66486 19.26148 258.44492 25.717293 251.10715 C 28.927562 247.43829 34.360567 243.06396 37.570833 241.54701 C 40.957491 239.92424 45.931845 238.3368 48.507117 238.08986 C 50.764886 237.84292 50.870622 237.87809 50.517847 238.51309 C 50.30618 238.86587 49.00083 240.34764 47.625 241.79403 C 45.049731 244.47512 42.474548 247.82622 42.968437 247.82622 C 43.109548 247.82622 43.568297 247.57927 43.99163 247.29705 C 45.896624 245.9565 53.939488 242.14653 56.550037 241.33514 C 61.630022 239.74764 63.11179 239.53615 68.967883 239.57142 C 75.070921 239.57142 77.787693 239.99499 85.019617 241.89996 C 92.992371 244.01663 98.495568 246.23906 105.30417 250.11962 C 116.69886 256.57542 125.94145 264.19514 135.92504 275.34288 C 144.32112 284.72674 153.81128 298.48549 153.81128 301.30771 C 153.81128 301.83687 154.30478 301.87219 158.6792 301.6958 C 166.33447 301.3783 171.52053 299.61406 176.35358 295.69823 C 180.62216 292.24101 181.61014 290.26548 180.93986 286.56132 C 180.23431 282.50438 177.65866 275.66043 174.41313 269.2399 C 169.96813 260.42048 167.00493 256.18701 160.61965 249.55479 C 157.55051 246.34454 155.64531 244.05184 154.97504 242.71128 L 153.95236 240.73569 L 154.0583 243.31073 C 154.12885 244.72184 154.26976 246.52132 154.37559 247.33271 C 154.58726 249.20241 157.02153 253.47084 160.30236 257.70417 C 165.20597 264.1247 168.45163 269.3809 170.99163 275.09587 C 172.40274 278.27087 175.22469 285.50328 175.82441 287.54937 C 176.10663 288.50187 173.0373 291.00656 167.92205 294.04045 L 164.25354 296.2274 L 163.5125 295.31014 C 163.08917 294.78097 161.88986 292.94649 160.83153 291.21788 C 153.56431 279.22349 140.05292 264.33612 128.41128 255.5167 C 118.4277 247.96729 111.23098 243.45192 104.06962 240.24167 C 95.497135 236.39639 86.430693 233.78583 74.436283 231.775 C 67.486582 230.57556 66.145638 230.46969 58.38455 230.32858 C 56.020945 230.2933 54.109286 230.28207 52.489819 230.31514 z M 233.22142 231.98687 C 233.32726 231.98687 233.39792 232.69229 233.32736 233.60951 C 233.2568 234.56201 233.11552 236.99601 232.97441 239.0774 L 232.76254 242.85236 L 230.92854 243.38153 C 226.8716 244.58097 225.24843 244.75746 220.30955 244.5458 C 214.80622 244.29885 210.99635 243.73399 210.74941 243.06372 C 210.64358 242.85205 211.17299 241.08847 211.87854 239.14819 C 212.58409 237.2432 213.21913 235.30267 213.32496 234.84406 C 213.50135 234.17379 213.67747 234.06823 214.45358 234.24462 C 216.35857 234.63267 226.55372 233.7508 229.83455 232.90413 C 231.59844 232.44552 233.11559 232.02215 233.22142 231.98687 z M 109.7101 288.11936 C 109.50358 288.08741 109.33431 288.10076 109.18507 288.1545 C 108.98608 288.22616 108.82295 288.3692 108.65538 288.57205 C 108.30261 288.99538 108.40844 289.38344 109.18455 290.68872 C 110.34872 292.73481 112.00711 293.9346 116.91069 296.29819 C 121.92013 298.73236 124.81261 299.75507 129.82205 300.88396 C 134.86675 302.01285 138.677 302.33073 142.73392 301.97795 C 146.15586 301.69573 146.08527 301.625 141.2875 300.56667 C 130.98642 298.30889 120.72034 294.39284 113.02979 289.77146 C 111.28356 288.71974 110.32967 288.21524 109.7101 288.11936 z " />
  </g>
</svg>
